<?xml version="1.0" encoding="utf-8"?>
<!-- Generator: Adobe Illustrator 17.0.0, SVG Export Plug-In . SVG Version: 6.00 Build 0)  -->
<!DOCTYPE svg PUBLIC "-//W3C//DTD SVG 1.1//EN" "http://www.w3.org/Graphics/SVG/1.1/DTD/svg11.dtd">
<svg version="1.1" id="Layer_1" xmlns="http://www.w3.org/2000/svg" xmlns:xlink="http://www.w3.org/1999/xlink" x="0px" y="0px"
	 width="300px" height="122.667px" viewBox="0 0 300 122.667" enable-background="new 0 0 300 122.667" xml:space="preserve">
<circle fill="#27B899" cx="481.529" cy="209.876" r="52.543"/>
<circle fill="#27B899" cx="162.51" cy="382.046" r="48.713"/>
<path fill="#27B899" d="M86.131,587.732v1.599c0,17.924-9.911,33.831-31.189,33.831c-20.005,0-32.645-15.654-32.645-33.158
	c0-18.094,13.003-33.662,33.463-33.662c11.639,0,21.823,5.47,27.097,15.148l-11.821,5.891c-2.728-5.722-8.547-10.099-15.64-10.099
	c-12.912,0-19.277,12.204-19.277,22.723s6.456,22.217,19.368,22.217c8.365,0,15.367-6.732,15.64-14.39H56.578v-10.099H86.131z"/>
<path fill="#27B899" d="M144.127,621.479h-16.185l-16.64-25.584h-0.182v25.584H97.752v-63.455h18.095
	c13.549,0,22.915,5.555,22.915,19.105c0,8.078-4.819,16.158-14.004,17.589L144.127,621.479z M111.119,587.227h1.728
	c7.366,0,12.548-2.021,12.548-9.763c0-7.827-5.365-9.342-12.457-9.342h-1.819V587.227z"/>
<path fill="#27B899" d="M182.924,556.342h9.639l36.1,44.35h0.182v-42.668h13.367v64.716h-9.639l-36.1-44.35h-0.182v43.088h-13.367
	V556.342z"/>
<path fill="#27B899" d="M302.753,574.856c-3.728-4.208-9.367-6.734-15.096-6.734c-12.821,0-20.186,10.941-20.186,21.881
	c0,10.688,7.638,21.375,20.095,21.375c5.729,0,11.458-2.777,15.187-6.732v14.728c-5.002,2.188-10.003,3.787-15.549,3.787
	c-19.277,0-33.554-15.401-33.554-32.905c0-18.01,13.731-33.915,33.826-33.915c5.366,0,10.64,1.346,15.278,3.703V574.856z"/>
<g>
	
		<rect x="174.959" y="517.316" transform="matrix(0.7869 0.617 -0.617 0.7869 369.7126 5.5808)" fill="#716558" width="3.634" height="41.615"/>
	
		<rect x="125.087" y="551.364" transform="matrix(0.6169 0.787 -0.787 0.6169 491.2669 97.098)" fill="#716558" width="41.613" height="3.634"/>
	<path fill="#B01418" d="M139.642,537.661c0,0-0.188-0.247-0.41-0.656c-0.229-0.41-0.487-0.982-0.701-1.647
		c-0.424-1.329-0.528-3.002-0.19-4.579c0.337-1.577,1.117-3.059,2.055-4.094c0.469-0.517,0.943-0.931,1.322-1.21
		c0.372-0.281,0.647-0.428,0.647-0.428s0.19,0.247,0.413,0.656c0.23,0.411,0.491,0.983,0.705,1.648
		c0.427,1.33,0.526,3.002,0.183,4.578c-0.343,1.576-1.128,3.057-2.063,4.093c-0.469,0.518-0.94,0.931-1.318,1.211
		C139.915,537.514,139.642,537.661,139.642,537.661z"/>
	<path fill="#B01418" d="M124.357,547.006c0,0,0.247-0.188,0.656-0.41c0.41-0.229,0.982-0.487,1.647-0.701
		c1.329-0.424,3.002-0.528,4.579-0.19c1.577,0.337,3.059,1.117,4.094,2.055c0.517,0.47,0.931,0.943,1.21,1.322
		c0.281,0.372,0.428,0.647,0.428,0.647s-0.247,0.19-0.656,0.413c-0.411,0.23-0.983,0.491-1.648,0.705
		c-1.33,0.427-3.002,0.526-4.578,0.183c-1.576-0.343-3.057-1.128-4.093-2.063c-0.518-0.469-0.931-0.94-1.211-1.318
		C124.504,547.28,124.357,547.006,124.357,547.006z"/>
	<path fill="#B01418" d="M201.433,529.446c0,0-0.163,0.264-0.466,0.617c-0.302,0.36-0.743,0.806-1.288,1.243
		c-1.09,0.871-2.615,1.565-4.209,1.813c-1.594,0.248-3.256,0.049-4.558-0.458c-0.651-0.254-1.206-0.549-1.602-0.803
		c-0.395-0.247-0.63-0.452-0.63-0.452s0.163-0.266,0.466-0.62c0.301-0.362,0.743-0.81,1.287-1.247
		c1.09-0.874,2.616-1.564,4.211-1.805c1.595-0.242,3.258-0.038,4.559,0.465c0.651,0.253,1.206,0.546,1.602,0.799
		C201.197,529.244,201.433,529.446,201.433,529.446z"/>
	<path fill="#B01418" d="M175.64,516.406c0,0,0.264,0.163,0.617,0.466c0.36,0.302,0.806,0.743,1.243,1.288
		c0.871,1.09,1.565,2.615,1.813,4.209c0.248,1.594,0.049,3.257-0.458,4.558c-0.254,0.651-0.549,1.206-0.803,1.602
		c-0.247,0.395-0.452,0.63-0.452,0.63s-0.266-0.163-0.62-0.466c-0.362-0.301-0.81-0.743-1.247-1.287
		c-0.874-1.09-1.563-2.616-1.805-4.211c-0.242-1.595-0.038-3.258,0.465-4.559c0.253-0.651,0.546-1.206,0.799-1.602
		C175.437,516.641,175.64,516.406,175.64,516.406z"/>
</g>
<path fill="#27B899" d="M406.131,587.732v1.599c0,17.924-9.911,33.831-31.189,33.831c-20.005,0-32.645-15.654-32.645-33.158
	c0-18.094,13.003-33.662,33.463-33.662c11.639,0,21.823,5.47,27.097,15.148l-11.821,5.891c-2.728-5.722-8.547-10.099-15.64-10.099
	c-12.912,0-19.277,12.204-19.277,22.723s6.456,22.217,19.368,22.217c8.365,0,15.367-6.732,15.64-14.39h-14.549v-10.099H406.131z"/>
<path fill="#27B899" d="M464.127,621.479h-16.185l-16.64-25.584h-0.182v25.584h-13.367v-63.455h18.095
	c13.549,0,22.915,5.555,22.915,19.105c0,8.078-4.819,16.158-14.004,17.589L464.127,621.479z M431.119,587.227h1.728
	c7.366,0,12.548-2.021,12.548-9.763c0-7.827-5.365-9.342-12.457-9.342h-1.819V587.227z"/>
<path fill="#27B899" d="M502.924,556.342h9.639l36.1,44.35h0.182v-42.668h13.367v64.716h-9.639l-36.1-44.35h-0.182v43.088h-13.367
	V556.342z"/>
<path fill="#27B899" d="M622.753,574.856c-3.728-4.208-9.367-6.734-15.096-6.734c-12.821,0-20.186,10.941-20.186,21.881
	c0,10.688,7.638,21.375,20.095,21.375c5.729,0,11.458-2.777,15.187-6.732v14.728c-5.002,2.188-10.003,3.787-15.549,3.787
	c-19.277,0-33.554-15.401-33.554-32.905c0-18.01,13.731-33.915,33.826-33.915c5.366,0,10.64,1.346,15.278,3.703V574.856z"/>
<g>
	
		<rect x="494.959" y="517.316" transform="matrix(0.7869 0.617 -0.617 0.7869 437.8958 -191.8737)" fill="#716558" width="3.634" height="41.615"/>
	
		<rect x="445.087" y="551.364" transform="matrix(0.6169 0.787 -0.787 0.6169 613.8582 -154.7547)" fill="#716558" width="41.613" height="3.634"/>
	<path fill="#27B899" d="M459.642,537.661c0,0-0.188-0.247-0.41-0.656c-0.229-0.41-0.487-0.982-0.701-1.647
		c-0.424-1.329-0.528-3.002-0.19-4.579c0.337-1.577,1.117-3.059,2.055-4.094c0.47-0.517,0.943-0.931,1.322-1.21
		c0.372-0.281,0.647-0.428,0.647-0.428s0.19,0.247,0.413,0.656c0.23,0.411,0.491,0.983,0.705,1.648
		c0.427,1.33,0.526,3.002,0.182,4.578c-0.343,1.576-1.128,3.057-2.063,4.093c-0.469,0.518-0.94,0.931-1.318,1.211
		C459.915,537.514,459.642,537.661,459.642,537.661z"/>
	<path fill="#27B899" d="M444.357,547.006c0,0,0.247-0.188,0.656-0.41c0.41-0.229,0.982-0.487,1.647-0.701
		c1.329-0.424,3.002-0.528,4.579-0.19c1.577,0.337,3.059,1.117,4.094,2.055c0.517,0.47,0.931,0.943,1.21,1.322
		c0.281,0.372,0.428,0.647,0.428,0.647s-0.247,0.19-0.656,0.413c-0.411,0.23-0.983,0.491-1.648,0.705
		c-1.33,0.427-3.002,0.526-4.578,0.183c-1.576-0.343-3.057-1.128-4.093-2.063c-0.518-0.469-0.931-0.94-1.211-1.318
		C444.504,547.28,444.357,547.006,444.357,547.006z"/>
	<path fill="#27B899" d="M521.433,529.446c0,0-0.163,0.264-0.466,0.617c-0.302,0.36-0.743,0.806-1.288,1.243
		c-1.09,0.871-2.615,1.565-4.209,1.813c-1.594,0.248-3.257,0.049-4.558-0.458c-0.651-0.254-1.206-0.549-1.602-0.803
		c-0.395-0.247-0.63-0.452-0.63-0.452s0.163-0.266,0.466-0.62c0.301-0.362,0.743-0.81,1.287-1.247
		c1.09-0.874,2.616-1.564,4.211-1.805c1.595-0.242,3.258-0.038,4.559,0.465c0.651,0.253,1.206,0.546,1.602,0.799
		C521.197,529.244,521.433,529.446,521.433,529.446z"/>
	<path fill="#27B899" d="M495.64,516.406c0,0,0.264,0.163,0.617,0.466c0.36,0.302,0.806,0.743,1.243,1.288
		c0.871,1.09,1.565,2.615,1.813,4.209c0.248,1.594,0.049,3.257-0.458,4.558c-0.254,0.651-0.549,1.206-0.803,1.602
		c-0.247,0.395-0.452,0.63-0.452,0.63s-0.266-0.163-0.62-0.466c-0.362-0.301-0.81-0.743-1.247-1.287
		c-0.874-1.09-1.564-2.616-1.805-4.211c-0.242-1.595-0.038-3.258,0.465-4.559c0.253-0.651,0.546-1.206,0.799-1.602
		C495.437,516.641,495.64,516.406,495.64,516.406z"/>
	<polygon fill="#716558" points="488.212,527.934 482.896,527.934 480.812,532.798 477.821,526.775 474.845,526.775 
		474.845,621.479 488.212,621.479 	"/>
</g>
<path fill="#27B899" d="M406.131,258.399v1.599c0,17.924-9.911,33.831-31.189,33.831c-20.005,0-32.645-15.654-32.645-33.158
	c0-18.094,13.003-33.662,33.463-33.662c11.639,0,21.823,5.47,27.097,15.148l-11.821,5.89c-2.728-5.722-8.547-10.099-15.64-10.099
	c-12.912,0-19.277,12.204-19.277,22.723c0,10.519,6.456,22.217,19.368,22.217c8.365,0,15.367-6.732,15.64-14.39h-14.549v-10.099
	H406.131z"/>
<g>
	<path fill="#27B899" d="M446.856,294.145l-13.737-21.12v21.12h-17.366V226.69h20.095c16.066,0,24.915,7.495,24.915,21.105
		c0,7.42-3.979,15.97-12.636,18.831l19.916,27.519H446.856z M433.119,255.893c8.521-0.064,10.276-3.151,10.276-7.762
		c0-5.378-2.693-7.312-10.276-7.341V255.893z"/>
	<path fill="#FFFFFF" d="M435.847,228.691c13.549,0,22.915,5.555,22.915,19.105c0,8.078-4.819,16.158-14.004,17.588l19.368,26.761
		h-16.185l-16.64-25.584h-0.182v25.584h-13.367v-63.455H435.847 M431.119,257.894h1.728c7.366,0,12.548-2.021,12.548-9.763
		c0-7.827-5.365-9.342-12.457-9.342h-1.819V257.894 M435.847,224.691h-18.095h-4v4v63.455v4h4h13.367h4v-4v-12.378l9.469,14.559
		l1.183,1.819h2.17h16.185h7.833l-4.592-6.345l-16.144-22.306c7.01-3.462,11.539-10.874,11.539-19.699
		C462.762,233.112,452.952,224.691,435.847,224.691L435.847,224.691z M435.119,253.813v-10.962c5.816,0.361,6.276,2.294,6.276,5.28
		C441.395,251.052,440.891,253.358,435.119,253.813L435.119,253.813z"/>
</g>
<g>
	<polygon fill="#27B899" points="551.622,295.407 518.291,254.458 518.291,294.145 500.925,294.145 500.925,225.009 
		513.514,225.009 546.845,265.958 546.845,226.69 564.212,226.69 564.212,295.407 	"/>
	<path fill="#FFFFFF" d="M512.563,227.009l36.1,44.35h0.182v-42.668h13.367v64.716h-9.639l-36.1-44.35h-0.182v43.088h-13.367
		v-65.137H512.563 M514.465,223.009h-1.902h-9.639h-4v4v65.137v4h4h13.367h4v-4v-32.061l29.18,35.848l1.201,1.475h1.902h9.639h4v-4
		v-64.716v-4h-4h-13.367h-4v4v31.641l-29.18-35.848L514.465,223.009L514.465,223.009z"/>
</g>
<path fill="#27B899" d="M622.753,245.523c-3.728-4.208-9.367-6.734-15.096-6.734c-12.821,0-20.186,10.941-20.186,21.881
	c0,10.688,7.638,21.375,20.095,21.375c5.729,0,11.458-2.777,15.187-6.732v14.728c-5.002,2.188-10.003,3.787-15.549,3.787
	c-19.277,0-33.554-15.401-33.554-32.905c0-18.01,13.731-33.915,33.826-33.915c5.366,0,10.64,1.346,15.278,3.703V245.523z"/>
<g>
	<path fill="#FFFFFF" d="M458.687,208.977c0,0-0.188-0.247-0.41-0.656c-0.229-0.41-0.487-0.982-0.701-1.647
		c-0.424-1.329-0.528-3.002-0.19-4.579c0.337-1.577,1.118-3.059,2.055-4.094c0.469-0.517,0.943-0.931,1.322-1.21
		c0.372-0.281,0.647-0.428,0.647-0.428s0.19,0.247,0.413,0.656c0.23,0.411,0.491,0.983,0.705,1.648
		c0.427,1.33,0.526,3.002,0.182,4.578c-0.343,1.576-1.128,3.057-2.063,4.093c-0.469,0.518-0.94,0.931-1.318,1.211
		C458.961,208.829,458.687,208.977,458.687,208.977z"/>
	<path fill="#FFFFFF" d="M443.788,215.261c0,0,0.247-0.188,0.656-0.41c0.41-0.229,0.982-0.487,1.647-0.701
		c1.329-0.424,3.002-0.528,4.579-0.19c1.577,0.337,3.059,1.118,4.094,2.055c0.517,0.47,0.931,0.943,1.21,1.322
		c0.281,0.372,0.428,0.647,0.428,0.647s-0.247,0.19-0.656,0.413c-0.411,0.23-0.983,0.491-1.648,0.705
		c-1.33,0.427-3.002,0.526-4.578,0.183c-1.576-0.343-3.057-1.128-4.093-2.063c-0.518-0.469-0.931-0.94-1.211-1.318
		C443.935,215.534,443.788,215.261,443.788,215.261z"/>
	<polygon fill="#716558" points="488.212,198.6 482.896,198.6 480.812,203.465 477.821,197.441 474.845,197.441 474.845,292.145 
		488.212,292.145 	"/>
</g>
<path fill="#27B899" d="M86.131,436.399v1.599c0,17.924-9.911,33.831-31.189,33.831c-20.005,0-32.645-15.654-32.645-33.158
	c0-18.094,13.003-33.662,33.463-33.662c11.639,0,21.823,5.47,27.097,15.148l-11.821,5.891c-2.728-5.722-8.547-10.099-15.64-10.099
	c-12.912,0-19.277,12.204-19.277,22.723c0,10.519,6.456,22.217,19.368,22.217c8.365,0,15.367-6.732,15.64-14.39H56.578v-10.099
	H86.131z"/>
<g>
	<path fill="#27B899" d="M126.857,472.145l-13.738-21.121v21.121H95.752V404.69h20.095c16.067,0,24.915,7.495,24.915,21.105
		c0,7.42-3.979,15.97-12.636,18.831l19.917,27.519H126.857z M113.119,433.893c8.52-0.064,10.276-3.151,10.276-7.762
		c0-5.378-2.694-7.312-10.276-7.341V433.893z"/>
	<path fill="#FFFFFF" d="M115.847,406.691c13.549,0,22.915,5.555,22.915,19.105c0,8.078-4.819,16.158-14.004,17.589l19.368,26.761
		h-16.185l-16.64-25.584h-0.182v25.584H97.752v-63.455H115.847 M111.119,435.894h1.728c7.366,0,12.548-2.021,12.548-9.763
		c0-7.827-5.365-9.342-12.457-9.342h-1.819V435.894 M115.847,402.691H97.752h-4v4v63.455v4h4h13.367h4v-4v-12.378l9.469,14.559
		l1.183,1.819h2.17h16.185h7.833l-4.592-6.345l-16.144-22.306c7.01-3.462,11.539-10.874,11.539-19.699
		C142.762,411.112,132.952,402.691,115.847,402.691L115.847,402.691z M115.119,431.813v-10.962c5.816,0.361,6.276,2.294,6.276,5.28
		C121.395,429.052,120.891,431.358,115.119,431.813L115.119,431.813z"/>
</g>
<g>
	<polygon fill="#27B899" points="231.622,473.407 198.291,432.458 198.291,472.145 180.925,472.145 180.925,403.009 
		193.514,403.009 226.845,443.958 226.845,404.69 244.212,404.69 244.212,473.407 	"/>
	<path fill="#FFFFFF" d="M192.563,405.009l36.1,44.35h0.182v-42.668h13.367v64.716h-9.639l-36.1-44.35h-0.182v43.088h-13.367
		v-65.137H192.563 M194.465,401.009h-1.902h-9.639h-4v4v65.137v4h4h13.367h4v-4v-32.061l29.18,35.848l1.201,1.475h1.902h9.639h4v-4
		v-64.716v-4h-4h-13.367h-4v4v31.641l-29.18-35.848L194.465,401.009L194.465,401.009z"/>
</g>
<path fill="#27B899" d="M302.753,423.523c-3.728-4.208-9.367-6.734-15.096-6.734c-12.821,0-20.186,10.941-20.186,21.881
	c0,10.688,7.638,21.375,20.095,21.375c5.729,0,11.458-2.777,15.187-6.732v14.728c-5.002,2.188-10.003,3.787-15.549,3.787
	c-19.277,0-33.554-15.401-33.554-32.905c0-18.01,13.731-33.915,33.826-33.915c5.366,0,10.64,1.346,15.278,3.703V423.523z"/>
<g>
	
		<rect x="174.959" y="365.983" transform="matrix(0.7869 0.617 -0.617 0.7869 276.3332 -26.6642)" fill="#716558" width="3.634" height="41.615"/>
	
		<rect x="125.087" y="400.031" transform="matrix(0.6169 0.787 -0.787 0.6169 372.1616 39.1226)" fill="#716558" width="41.613" height="3.634"/>
	<path fill="#B01418" d="M139.642,386.328c0,0-0.188-0.247-0.41-0.656c-0.229-0.41-0.487-0.982-0.701-1.647
		c-0.424-1.329-0.528-3.002-0.19-4.579c0.337-1.577,1.117-3.059,2.055-4.094c0.469-0.517,0.943-0.931,1.322-1.21
		c0.372-0.281,0.647-0.428,0.647-0.428s0.19,0.247,0.413,0.656c0.23,0.411,0.491,0.983,0.705,1.648
		c0.427,1.33,0.526,3.002,0.182,4.578c-0.343,1.576-1.128,3.057-2.063,4.093c-0.469,0.518-0.94,0.931-1.318,1.211
		C139.915,386.181,139.642,386.328,139.642,386.328z"/>
	<path fill="#B01418" d="M124.357,395.673c0,0,0.247-0.188,0.656-0.41c0.41-0.229,0.982-0.487,1.647-0.701
		c1.329-0.424,3.002-0.528,4.579-0.19c1.577,0.337,3.059,1.117,4.094,2.055c0.517,0.47,0.931,0.943,1.21,1.322
		c0.281,0.372,0.428,0.647,0.428,0.647s-0.247,0.19-0.656,0.413c-0.411,0.23-0.983,0.491-1.648,0.705
		c-1.33,0.427-3.002,0.526-4.578,0.183c-1.576-0.343-3.057-1.128-4.093-2.063c-0.518-0.469-0.931-0.94-1.211-1.318
		C124.504,395.946,124.357,395.673,124.357,395.673z"/>
	<path fill="#B01418" d="M201.433,378.113c0,0-0.163,0.264-0.466,0.617c-0.302,0.36-0.743,0.806-1.288,1.243
		c-1.09,0.871-2.615,1.565-4.209,1.813c-1.594,0.248-3.256,0.049-4.558-0.458c-0.651-0.254-1.206-0.549-1.602-0.803
		c-0.395-0.247-0.63-0.452-0.63-0.452s0.163-0.266,0.466-0.62c0.301-0.362,0.743-0.81,1.287-1.247
		c1.09-0.874,2.616-1.564,4.211-1.805c1.595-0.242,3.258-0.038,4.559,0.465c0.651,0.253,1.206,0.546,1.602,0.799
		C201.197,377.91,201.433,378.113,201.433,378.113z"/>
	<path fill="#B01418" d="M175.64,365.073c0,0,0.264,0.163,0.617,0.466c0.36,0.302,0.806,0.743,1.243,1.288
		c0.871,1.09,1.565,2.615,1.813,4.209c0.248,1.594,0.049,3.257-0.458,4.558c-0.254,0.651-0.549,1.206-0.803,1.602
		c-0.247,0.395-0.452,0.63-0.452,0.63s-0.266-0.163-0.62-0.466c-0.362-0.301-0.81-0.743-1.247-1.287
		c-0.874-1.09-1.563-2.616-1.805-4.211c-0.242-1.595-0.038-3.258,0.465-4.559c0.253-0.651,0.546-1.206,0.799-1.602
		C175.437,365.308,175.64,365.073,175.64,365.073z"/>
</g>
<circle fill="#27B899" cx="481.529" cy="387.876" r="52.543"/>
<path fill="#27B899" d="M406.131,436.399v1.599c0,17.924-9.911,33.831-31.189,33.831c-20.005,0-32.645-15.654-32.645-33.158
	c0-18.094,13.003-33.662,33.463-33.662c11.639,0,21.823,5.47,27.097,15.148l-11.821,5.891c-2.728-5.722-8.547-10.099-15.64-10.099
	c-12.912,0-19.277,12.204-19.277,22.723c0,10.519,6.456,22.217,19.368,22.217c8.365,0,15.367-6.732,15.64-14.39h-14.549v-10.099
	H406.131z"/>
<g>
	<path fill="#27B899" d="M446.856,472.145l-13.737-21.12v21.12h-17.366V404.69h20.095c16.066,0,24.915,7.495,24.915,21.105
		c0,7.42-3.979,15.97-12.636,18.831l19.916,27.519H446.856z M433.119,433.893c8.521-0.064,10.276-3.151,10.276-7.762
		c0-5.378-2.693-7.312-10.276-7.341V433.893z"/>
	<path fill="#FFFFFF" d="M435.847,406.691c13.549,0,22.915,5.555,22.915,19.105c0,8.078-4.819,16.158-14.004,17.589l19.368,26.761
		h-16.185l-16.64-25.584h-0.182v25.584h-13.367v-63.455H435.847 M431.119,435.894h1.728c7.366,0,12.548-2.021,12.548-9.763
		c0-7.827-5.365-9.342-12.457-9.342h-1.819V435.894 M435.847,402.691h-18.095h-4v4v63.455v4h4h13.367h4v-4v-12.378l9.469,14.559
		l1.183,1.819h2.17h16.185h7.833l-4.592-6.345l-16.144-22.306c7.01-3.462,11.539-10.874,11.539-19.699
		C462.762,411.112,452.952,402.691,435.847,402.691L435.847,402.691z M435.119,431.813v-10.962c5.816,0.361,6.276,2.294,6.276,5.28
		C441.395,429.052,440.891,431.358,435.119,431.813L435.119,431.813z"/>
</g>
<g>
	<polygon fill="#27B899" points="551.622,473.407 518.291,432.458 518.291,472.145 500.925,472.145 500.925,403.009 
		513.514,403.009 546.845,443.958 546.845,403.69 564.212,403.69 564.212,473.407 	"/>
	<path fill="#FFFFFF" d="M512.563,405.009l36.1,44.35h0.182v-43.668h13.367v65.716h-9.639l-36.1-44.35h-0.182v43.088h-13.367
		v-65.137H512.563 M514.465,401.009h-1.902h-9.639h-4v4v65.137v4h4h13.367h4v-4v-32.061l29.18,35.848l1.201,1.475h1.902h9.639h4v-4
		v-65.716v-4h-4h-13.367h-4v4v32.641l-29.18-35.848L514.465,401.009L514.465,401.009z"/>
</g>
<path fill="#27B899" d="M622.753,423.523c-3.728-4.208-9.367-6.734-15.096-6.734c-12.821,0-20.186,10.941-20.186,21.881
	c0,10.688,7.638,21.375,20.095,21.375c5.729,0,11.458-2.777,15.187-6.732v14.728c-5.002,2.188-10.003,3.787-15.549,3.787
	c-19.277,0-33.554-15.401-33.554-32.905c0-18.01,13.731-33.915,33.826-33.915c5.366,0,10.64,1.346,15.278,3.703V423.523z"/>
<g>
	
		<rect x="494.959" y="365.983" transform="matrix(0.7869 0.617 -0.617 0.7869 344.5163 -224.1186)" fill="#716558" width="3.634" height="41.615"/>
	
		<rect x="445.087" y="400.031" transform="matrix(0.6169 0.787 -0.787 0.6169 494.7528 -212.7301)" fill="#716558" width="41.613" height="3.634"/>
	<path fill="#FFFFFF" d="M459.642,386.328c0,0-0.188-0.247-0.41-0.656c-0.229-0.41-0.487-0.982-0.701-1.647
		c-0.424-1.329-0.528-3.002-0.19-4.579c0.337-1.577,1.117-3.059,2.055-4.094c0.47-0.517,0.943-0.931,1.322-1.21
		c0.372-0.281,0.647-0.428,0.647-0.428s0.19,0.247,0.413,0.656c0.23,0.411,0.491,0.983,0.705,1.648
		c0.427,1.33,0.526,3.002,0.183,4.578c-0.343,1.576-1.128,3.057-2.063,4.093c-0.469,0.518-0.94,0.931-1.318,1.211
		C459.915,386.181,459.642,386.328,459.642,386.328z"/>
	<path fill="#FFFFFF" d="M444.357,395.673c0,0,0.247-0.188,0.656-0.41c0.41-0.229,0.982-0.487,1.647-0.701
		c1.329-0.424,3.002-0.528,4.579-0.19c1.577,0.337,3.059,1.117,4.094,2.055c0.517,0.47,0.931,0.943,1.21,1.322
		c0.281,0.372,0.428,0.647,0.428,0.647s-0.247,0.19-0.656,0.413c-0.411,0.23-0.983,0.491-1.648,0.705
		c-1.33,0.427-3.002,0.526-4.578,0.183c-1.576-0.343-3.057-1.128-4.093-2.063c-0.518-0.469-0.931-0.94-1.211-1.318
		C444.504,395.946,444.357,395.673,444.357,395.673z"/>
	<path fill="#FFFFFF" d="M521.433,378.113c0,0-0.163,0.264-0.466,0.617c-0.302,0.36-0.743,0.806-1.288,1.243
		c-1.09,0.871-2.615,1.565-4.209,1.813c-1.594,0.248-3.256,0.049-4.558-0.458c-0.651-0.254-1.206-0.549-1.602-0.803
		c-0.395-0.247-0.63-0.452-0.63-0.452s0.163-0.266,0.466-0.62c0.301-0.362,0.743-0.81,1.287-1.247
		c1.09-0.874,2.616-1.564,4.211-1.805c1.595-0.242,3.258-0.038,4.559,0.465c0.651,0.253,1.206,0.546,1.602,0.799
		C521.197,377.91,521.433,378.113,521.433,378.113z"/>
	<path fill="#FFFFFF" d="M495.64,365.073c0,0,0.264,0.163,0.617,0.466c0.36,0.302,0.806,0.743,1.243,1.288
		c0.871,1.09,1.565,2.615,1.813,4.209c0.248,1.594,0.049,3.257-0.458,4.558c-0.254,0.651-0.549,1.206-0.803,1.602
		c-0.247,0.395-0.452,0.63-0.452,0.63s-0.266-0.163-0.62-0.466c-0.362-0.301-0.81-0.743-1.247-1.287
		c-0.874-1.09-1.564-2.616-1.805-4.211c-0.242-1.595-0.038-3.258,0.465-4.559c0.253-0.651,0.546-1.206,0.799-1.602
		C495.437,365.308,495.64,365.073,495.64,365.073z"/>
</g>
<rect x="154.845" y="526.775" fill="#716558" width="13.367" height="94.704"/>
<rect x="154.845" y="375.441" fill="#716558" width="13.367" height="94.704"/>
<polygon fill="#716558" points="488.212,376.6 482.896,376.6 480.812,381.465 477.821,375.441 474.845,375.441 474.845,470.145 
	488.212,470.145 "/>
<polygon fill="#716558" points="453.687,206.977 480.159,238.102 477.3,242.344 452.402,207.985 "/>
<path fill="#FFFFFF" d="M508.533,199.489c0,0,0.195-0.242,0.539-0.554c0.344-0.32,0.837-0.707,1.432-1.073
	c1.19-0.729,2.789-1.229,4.402-1.277c1.612-0.049,3.237,0.356,4.466,1.019c0.615,0.333,1.129,0.694,1.49,0.996
	c0.361,0.294,0.57,0.526,0.57,0.526s-0.195,0.243-0.539,0.557c-0.344,0.322-0.837,0.711-1.432,1.078
	c-1.19,0.732-2.789,1.227-4.402,1.269c-1.612,0.043-3.238-0.366-4.467-1.027c-0.615-0.332-1.129-0.691-1.49-0.991
	C508.741,199.72,508.533,199.489,508.533,199.489z"/>
<path fill="#FFFFFF" d="M500.819,184.042c0,0,0.242,0.195,0.554,0.539c0.32,0.344,0.707,0.837,1.073,1.432
	c0.729,1.19,1.228,2.789,1.277,4.402c0.049,1.612-0.356,3.237-1.019,4.466c-0.333,0.615-0.694,1.129-0.996,1.49
	c-0.294,0.361-0.526,0.57-0.526,0.57s-0.244-0.195-0.557-0.539c-0.322-0.344-0.711-0.837-1.078-1.432
	c-0.732-1.19-1.227-2.789-1.269-4.402c-0.043-1.612,0.366-3.238,1.027-4.467c0.332-0.615,0.691-1.129,0.991-1.49
	C500.589,184.25,500.819,184.042,500.819,184.042z"/>
<polygon fill="#716558" points="510.254,192.918 485.37,227.288 482.51,223.046 508.968,191.91 "/>
<circle fill="#27B899" cx="481.529" cy="33.876" r="52.543"/>
<path fill="#27B899" d="M406.131,82.399v1.599c0,17.924-9.911,33.831-31.189,33.831c-20.005,0-32.645-15.654-32.645-33.158
	c0-18.094,13.003-33.662,33.463-33.662c11.639,0,21.823,5.47,27.097,15.148l-11.821,5.89c-2.728-5.722-8.547-10.099-15.64-10.099
	c-12.912,0-19.277,12.204-19.277,22.723s6.456,22.217,19.368,22.217c8.365,0,15.367-6.732,15.64-14.39h-14.549V82.399H406.131z"/>
<g>
	<path fill="#27B899" d="M446.856,118.145l-13.737-21.12v21.12h-17.366V50.69h20.095c16.066,0,24.915,7.495,24.915,21.105
		c0,7.42-3.979,15.97-12.636,18.831l19.916,27.519H446.856z M433.119,79.893c8.521-0.064,10.276-3.151,10.276-7.762
		c0-5.378-2.693-7.312-10.276-7.341V79.893z"/>
	<path fill="#FFFFFF" d="M435.847,52.691c13.549,0,22.915,5.555,22.915,19.105c0,8.078-4.819,16.158-14.004,17.589l19.368,26.761
		h-16.185l-16.64-25.584h-0.182v25.584h-13.367V52.691H435.847 M431.119,81.894h1.728c7.366,0,12.548-2.021,12.548-9.763
		c0-7.827-5.365-9.342-12.457-9.342h-1.819V81.894 M435.847,48.691h-18.095h-4v4v63.455v4h4h13.367h4v-4v-12.378l9.469,14.559
		l1.183,1.819h2.17h16.185h7.833l-4.592-6.345l-16.144-22.306c7.01-3.462,11.539-10.874,11.539-19.699
		C462.762,57.112,452.952,48.691,435.847,48.691L435.847,48.691z M435.119,77.813V66.851c5.816,0.361,6.276,2.294,6.276,5.28
		C441.395,75.052,440.891,77.358,435.119,77.813L435.119,77.813z"/>
</g>
<g>
	<polygon fill="#27B899" points="551.622,119.407 518.291,78.458 518.291,118.145 500.925,118.145 500.925,49.009 513.514,49.009 
		546.845,89.958 546.845,50.69 564.212,50.69 564.212,119.407 	"/>
	<path fill="#FFFFFF" d="M512.563,51.009l36.1,44.35h0.182V52.691h13.367v64.716h-9.639l-36.1-44.35h-0.182v43.088h-13.367V51.009
		H512.563 M514.465,47.009h-1.902h-9.639h-4v4v65.137v4h4h13.367h4v-4V84.084l29.18,35.848l1.201,1.475h1.902h9.639h4v-4V52.691v-4
		h-4h-13.367h-4v4v31.641l-29.18-35.848L514.465,47.009L514.465,47.009z"/>
</g>
<path fill="#27B899" d="M622.753,69.523c-3.728-4.208-9.367-6.734-15.096-6.734c-12.821,0-20.186,10.941-20.186,21.881
	c0,10.688,7.638,21.375,20.095,21.375c5.729,0,11.458-2.777,15.187-6.732v14.728c-5.002,2.188-10.003,3.787-15.549,3.787
	c-19.277,0-33.554-15.401-33.554-32.905c0-18.01,13.731-33.915,33.826-33.915c5.366,0,10.64,1.346,15.278,3.703V69.523z"/>
<g>
	<path fill="#FFFFFF" d="M458.687,32.977c0,0-0.188-0.247-0.41-0.656c-0.229-0.41-0.487-0.982-0.701-1.647
		c-0.424-1.329-0.528-3.002-0.19-4.579c0.337-1.577,1.117-3.059,2.055-4.094c0.47-0.517,0.943-0.931,1.322-1.21
		c0.372-0.281,0.647-0.428,0.647-0.428s0.19,0.247,0.413,0.656c0.23,0.411,0.491,0.983,0.705,1.648
		c0.427,1.33,0.526,3.002,0.182,4.578c-0.343,1.576-1.128,3.057-2.063,4.093c-0.469,0.518-0.94,0.931-1.318,1.211
		C458.961,32.829,458.687,32.977,458.687,32.977z"/>
	<path fill="#FFFFFF" d="M443.788,39.261c0,0,0.247-0.188,0.656-0.41c0.41-0.229,0.982-0.487,1.647-0.701
		c1.329-0.424,3.002-0.528,4.579-0.19c1.577,0.337,3.059,1.118,4.094,2.055c0.517,0.47,0.931,0.943,1.21,1.322
		c0.281,0.372,0.428,0.647,0.428,0.647s-0.247,0.19-0.656,0.413c-0.411,0.23-0.983,0.491-1.648,0.705
		c-1.33,0.427-3.002,0.526-4.578,0.183c-1.576-0.343-3.057-1.128-4.093-2.063c-0.518-0.469-0.931-0.94-1.211-1.318
		C443.935,39.534,443.788,39.261,443.788,39.261z"/>
</g>
<polygon fill="#716558" points="453.687,30.977 480.159,62.102 477.3,66.344 452.402,31.985 "/>
<path fill="#FFFFFF" d="M508.533,23.489c0,0,0.195-0.242,0.539-0.554c0.344-0.32,0.837-0.707,1.432-1.073
	c1.19-0.729,2.789-1.229,4.402-1.277c1.612-0.049,3.237,0.356,4.466,1.019c0.615,0.333,1.129,0.694,1.49,0.996
	c0.361,0.294,0.57,0.526,0.57,0.526s-0.195,0.243-0.539,0.557c-0.344,0.322-0.837,0.711-1.432,1.078
	c-1.19,0.732-2.789,1.227-4.402,1.269c-1.612,0.043-3.238-0.366-4.467-1.027c-0.615-0.332-1.129-0.691-1.49-0.991
	C508.741,23.72,508.533,23.489,508.533,23.489z"/>
<path fill="#FFFFFF" d="M500.819,8.042c0,0,0.242,0.195,0.555,0.539c0.32,0.344,0.707,0.837,1.073,1.432
	c0.729,1.19,1.229,2.789,1.277,4.402c0.049,1.612-0.356,3.237-1.019,4.466c-0.333,0.615-0.694,1.129-0.996,1.49
	c-0.294,0.361-0.526,0.57-0.526,0.57s-0.244-0.195-0.557-0.539c-0.322-0.344-0.711-0.837-1.078-1.432
	c-0.732-1.19-1.227-2.789-1.269-4.402c-0.043-1.612,0.366-3.238,1.027-4.467c0.332-0.615,0.691-1.129,0.991-1.49
	C500.589,8.25,500.819,8.042,500.819,8.042z"/>
<polygon fill="#716558" points="510.254,16.918 485.37,51.288 482.51,47.046 508.968,15.91 "/>
<polygon fill="#716558" points="476.845,21.441 486.212,21.441 489.212,116.145 473.845,116.145 "/>
<path fill="#FFFFFF" d="M74.754,82.399v1.599c0,17.924-9.911,33.831-31.189,33.831c-20.005,0-32.645-15.654-32.645-33.158
	c0-18.094,13.003-33.662,33.463-33.662c11.639,0,21.823,5.47,27.097,15.148l-11.821,5.89c-2.728-5.722-8.547-10.099-15.64-10.099
	c-12.912,0-19.277,12.204-19.277,22.723s6.456,22.217,19.368,22.217c8.365,0,15.367-6.732,15.64-14.39H45.202V82.399H74.754z"/>
<g>
	<path fill="#FFFFFF" d="M132.75,116.145h-16.185l-16.64-25.584h-0.182v25.584H86.376V52.691h18.095
		c13.549,0,22.915,5.555,22.915,19.105c0,8.078-4.819,16.158-14.004,17.589L132.75,116.145z M99.742,81.894h1.728
		c7.366,0,12.548-2.021,12.548-9.763c0-7.827-5.365-9.342-12.457-9.342h-1.819V81.894z"/>
</g>
<g>
	<path fill="#FFFFFF" d="M171.548,51.009h9.639l36.1,44.35h0.182V52.691h13.367v64.716h-9.639l-36.1-44.35h-0.182v43.088h-13.367
		V51.009z"/>
</g>
<path fill="#FFFFFF" d="M291.377,69.523c-3.728-4.208-9.367-6.734-15.096-6.734c-12.821,0-20.186,10.941-20.186,21.881
	c0,10.688,7.638,21.375,20.095,21.375c5.729,0,11.458-2.777,15.187-6.732v14.728c-5.002,2.188-10.003,3.787-15.549,3.787
	c-19.277,0-33.554-15.401-33.554-32.905c0-18.01,13.731-33.915,33.826-33.915c5.366,0,10.64,1.346,15.278,3.703V69.523z"/>
<g>
	<path fill="#FFFFFF" d="M127.311,32.977c0,0-0.188-0.247-0.41-0.656c-0.229-0.41-0.487-0.982-0.701-1.647
		c-0.424-1.329-0.528-3.002-0.19-4.579c0.337-1.577,1.118-3.059,2.055-4.094c0.469-0.517,0.943-0.931,1.322-1.21
		c0.372-0.281,0.647-0.428,0.647-0.428s0.19,0.247,0.413,0.656c0.23,0.411,0.491,0.983,0.705,1.648
		c0.427,1.33,0.526,3.002,0.183,4.578c-0.343,1.576-1.128,3.057-2.063,4.093c-0.469,0.518-0.94,0.931-1.318,1.211
		C127.584,32.829,127.311,32.977,127.311,32.977z"/>
	<path fill="#FFFFFF" d="M112.411,39.261c0,0,0.247-0.188,0.656-0.41c0.41-0.229,0.982-0.487,1.647-0.701
		c1.329-0.424,3.002-0.528,4.579-0.19c1.577,0.337,3.059,1.118,4.094,2.055c0.517,0.47,0.931,0.943,1.21,1.322
		c0.281,0.372,0.428,0.647,0.428,0.647s-0.247,0.19-0.656,0.413c-0.411,0.23-0.983,0.491-1.648,0.705
		c-1.33,0.427-3.002,0.526-4.578,0.183c-1.576-0.343-3.057-1.128-4.093-2.063c-0.518-0.469-0.931-0.94-1.211-1.318
		C112.559,39.534,112.411,39.261,112.411,39.261z"/>
</g>
<polygon fill="#FFFFFF" points="122.311,30.977 148.783,62.102 145.923,66.344 121.025,31.985 "/>
<path fill="#FFFFFF" d="M177.157,23.489c0,0,0.195-0.242,0.539-0.554c0.344-0.32,0.837-0.707,1.432-1.073
	c1.19-0.729,2.789-1.229,4.402-1.277c1.612-0.049,3.237,0.356,4.466,1.019c0.615,0.333,1.129,0.694,1.49,0.996
	c0.361,0.294,0.57,0.526,0.57,0.526s-0.195,0.243-0.539,0.557c-0.344,0.322-0.837,0.711-1.432,1.078
	c-1.19,0.732-2.789,1.227-4.402,1.269c-1.612,0.043-3.238-0.366-4.467-1.027c-0.615-0.332-1.129-0.691-1.49-0.991
	C177.365,23.72,177.157,23.489,177.157,23.489z"/>
<path fill="#FFFFFF" d="M169.442,8.042c0,0,0.242,0.195,0.554,0.539c0.32,0.344,0.707,0.837,1.073,1.432
	c0.729,1.19,1.229,2.789,1.277,4.402c0.049,1.612-0.356,3.237-1.019,4.466c-0.333,0.615-0.694,1.129-0.996,1.49
	c-0.294,0.361-0.526,0.57-0.526,0.57s-0.244-0.195-0.557-0.539c-0.322-0.344-0.711-0.837-1.078-1.432
	c-0.732-1.19-1.227-2.789-1.269-4.402c-0.043-1.612,0.366-3.238,1.027-4.467c0.332-0.615,0.691-1.129,0.991-1.49
	C169.212,8.25,169.442,8.042,169.442,8.042z"/>
<polygon fill="#FFFFFF" points="178.877,16.918 153.993,51.288 151.133,47.046 177.592,15.91 "/>
<polygon fill="#FFFFFF" points="145.469,21.441 154.835,21.441 157.835,116.145 142.469,116.145 "/>
<g>
	<circle fill="#27B899" cx="349.892" cy="-158.818" r="62.793"/>
	<g>
		<path fill="#FFFFFF" d="M322.595-159.893c0,0-0.225-0.295-0.49-0.784c-0.273-0.49-0.582-1.174-0.837-1.968
			c-0.507-1.589-0.631-3.588-0.227-5.472c0.403-1.885,1.336-3.656,2.456-4.893c0.561-0.618,1.127-1.112,1.58-1.446
			c0.444-0.336,0.773-0.511,0.773-0.511s0.227,0.296,0.493,0.784c0.275,0.491,0.587,1.174,0.843,1.969
			c0.51,1.589,0.629,3.587,0.218,5.471c-0.41,1.884-1.348,3.653-2.465,4.891c-0.56,0.619-1.124,1.113-1.575,1.447
			C322.922-160.069,322.595-159.893,322.595-159.893z"/>
		<path fill="#FFFFFF" d="M304.789-152.383c0,0,0.295-0.225,0.784-0.49c0.49-0.273,1.174-0.582,1.968-0.838
			c1.589-0.507,3.587-0.631,5.472-0.227c1.885,0.403,3.656,1.336,4.893,2.456c0.618,0.561,1.112,1.127,1.446,1.58
			c0.335,0.444,0.511,0.773,0.511,0.773s-0.296,0.227-0.784,0.493c-0.491,0.275-1.174,0.587-1.969,0.843
			c-1.589,0.51-3.587,0.629-5.471,0.218c-1.884-0.41-3.653-1.348-4.891-2.465c-0.619-0.56-1.113-1.124-1.447-1.575
			C304.965-152.056,304.789-152.383,304.789-152.383z"/>
	</g>
	<polygon fill="#716558" points="316.62,-162.283 348.256,-125.086 344.838,-120.016 315.083,-161.078 	"/>
	<path fill="#FFFFFF" d="M382.165-171.231c0,0,0.233-0.289,0.644-0.663c0.411-0.382,1.001-0.845,1.712-1.283
		c1.422-0.871,3.334-1.468,5.26-1.526c1.927-0.058,3.869,0.425,5.338,1.218c0.734,0.397,1.349,0.829,1.781,1.19
		c0.432,0.351,0.681,0.629,0.681,0.629s-0.233,0.291-0.644,0.666c-0.411,0.384-1.001,0.85-1.711,1.288
		c-1.422,0.875-3.334,1.466-5.261,1.517c-1.927,0.051-3.869-0.437-5.338-1.227c-0.734-0.397-1.349-0.826-1.781-1.184
		C382.413-170.956,382.165-171.231,382.165-171.231z"/>
	<path fill="#FFFFFF" d="M372.945-189.692c0,0,0.289,0.233,0.663,0.644c0.382,0.411,0.845,1.001,1.283,1.712
		c0.871,1.422,1.468,3.333,1.526,5.26c0.058,1.927-0.425,3.869-1.218,5.338c-0.397,0.734-0.829,1.349-1.19,1.781
		c-0.351,0.432-0.629,0.681-0.629,0.681s-0.291-0.233-0.666-0.644c-0.384-0.411-0.85-1.001-1.288-1.711
		c-0.875-1.422-1.466-3.334-1.517-5.261c-0.051-1.927,0.437-3.869,1.227-5.338c0.397-0.734,0.826-1.349,1.184-1.781
		C372.67-189.444,372.945-189.692,372.945-189.692z"/>
	<polygon fill="#716558" points="384.221,-179.084 354.482,-138.009 351.065,-143.079 382.685,-180.289 	"/>
	<polygon fill="#716558" points="344.295,-173.679 355.489,-173.679 359.074,-60.5 340.71,-60.5 	"/>
</g>
<g>
	<path fill="#27B899" d="M484.833-94.298c-34.679,0-62.793-28.113-62.793-62.793s28.113-62.793,62.793-62.793"/>
	<g>
		<path fill="#FFFFFF" d="M457.536-158.165c0,0-0.225-0.295-0.49-0.784c-0.273-0.49-0.582-1.174-0.837-1.968
			c-0.507-1.589-0.631-3.588-0.227-5.472c0.403-1.885,1.336-3.656,2.456-4.893c0.561-0.618,1.127-1.112,1.58-1.446
			c0.444-0.336,0.773-0.511,0.773-0.511s0.227,0.296,0.493,0.784c0.275,0.491,0.587,1.174,0.843,1.969
			c0.51,1.589,0.629,3.587,0.218,5.471c-0.41,1.884-1.348,3.653-2.465,4.891c-0.56,0.619-1.124,1.113-1.575,1.447
			C457.862-158.341,457.536-158.165,457.536-158.165z"/>
		<path fill="#FFFFFF" d="M439.73-150.655c0,0,0.295-0.225,0.784-0.49c0.49-0.273,1.174-0.582,1.968-0.838
			c1.589-0.507,3.587-0.631,5.472-0.227c1.885,0.403,3.656,1.336,4.893,2.456c0.618,0.561,1.112,1.127,1.446,1.58
			c0.336,0.444,0.511,0.773,0.511,0.773s-0.296,0.227-0.784,0.493c-0.491,0.275-1.174,0.587-1.969,0.843
			c-1.589,0.51-3.587,0.629-5.471,0.218c-1.884-0.41-3.653-1.348-4.891-2.465c-0.619-0.56-1.113-1.124-1.447-1.575
			C439.905-150.328,439.73-150.655,439.73-150.655z"/>
	</g>
	<polygon fill="#716558" points="451.56,-160.555 483.196,-123.358 479.779,-118.288 450.023,-159.35 	"/>
	<path fill="#27B899" d="M517.105-169.503c0,0,0.233-0.289,0.644-0.663c0.411-0.382,1.001-0.845,1.712-1.283
		c1.422-0.871,3.334-1.468,5.26-1.526c1.927-0.058,3.869,0.425,5.338,1.218c0.734,0.397,1.349,0.829,1.781,1.19
		c0.432,0.351,0.681,0.629,0.681,0.629s-0.233,0.291-0.644,0.666c-0.411,0.384-1.001,0.85-1.711,1.288
		c-1.422,0.875-3.334,1.466-5.261,1.517c-1.927,0.051-3.869-0.437-5.338-1.227c-0.734-0.397-1.349-0.826-1.781-1.184
		C517.354-169.228,517.105-169.503,517.105-169.503z"/>
	<path fill="#27B899" d="M507.886-187.964c0,0,0.289,0.233,0.663,0.644c0.382,0.411,0.845,1.001,1.283,1.712
		c0.871,1.422,1.468,3.333,1.526,5.26c0.058,1.927-0.425,3.869-1.218,5.338c-0.397,0.734-0.829,1.349-1.19,1.781
		c-0.351,0.432-0.629,0.681-0.629,0.681s-0.291-0.233-0.666-0.644c-0.384-0.411-0.85-1.001-1.288-1.711
		c-0.875-1.422-1.466-3.334-1.517-5.261c-0.051-1.927,0.437-3.869,1.227-5.338c0.397-0.734,0.826-1.349,1.184-1.781
		C507.611-187.716,507.886-187.964,507.886-187.964z"/>
	<polygon fill="#716558" points="519.162,-177.356 489.423,-136.281 486.005,-141.351 517.625,-178.561 	"/>
	<polygon fill="#716558" points="479.236,-171.951 490.43,-171.951 494.015,-58.772 475.651,-58.772 	"/>
</g>
</svg>
