<?xml version="1.0" encoding="utf-8"?>
<!-- Generator: Adobe Illustrator 17.0.0, SVG Export Plug-In . SVG Version: 6.00 Build 0)  -->
<!DOCTYPE svg PUBLIC "-//W3C//DTD SVG 1.1//EN" "http://www.w3.org/Graphics/SVG/1.1/DTD/svg11.dtd">
<svg version="1.1" id="Layer_1" xmlns="http://www.w3.org/2000/svg" xmlns:xlink="http://www.w3.org/1999/xlink" x="0px" y="0px"
	 width="300px" height="120px" viewBox="0 0 300 120" enable-background="new 0 0 300 120" xml:space="preserve">
<path fill="#27B899" d="M74.754,78.399v1.599c0,17.924-9.911,33.831-31.189,33.831c-20.005,0-32.645-15.654-32.645-33.158
	c0-18.094,13.003-33.662,33.463-33.662c11.639,0,21.823,5.47,27.097,15.148l-11.821,5.89c-2.728-5.722-8.547-10.099-15.64-10.099
	c-12.912,0-19.277,12.204-19.277,22.723s6.456,22.217,19.368,22.217c8.365,0,15.367-6.732,15.64-14.39H45.202V78.399H74.754z"/>
<path fill="#27B899" d="M132.75,112.145h-16.185l-16.64-25.584h-0.182v25.584H86.376V48.691h18.095
	c13.549,0,22.915,5.555,22.915,19.105c0,8.078-4.819,16.158-14.004,17.589L132.75,112.145z M99.742,77.894h1.728
	c7.366,0,12.548-2.021,12.548-9.763c0-7.827-5.365-9.342-12.457-9.342h-1.819V77.894z"/>
<path fill="#27B899" d="M171.548,47.009h9.639l36.1,44.35h0.182V48.691h13.367v64.716h-9.639l-36.1-44.35h-0.182v43.088h-13.367
	V47.009z"/>
<path fill="#27B899" d="M291.377,65.523c-3.728-4.208-9.367-6.734-15.096-6.734c-12.821,0-20.186,10.941-20.186,21.881
	c0,10.688,7.638,21.375,20.095,21.375c5.729,0,11.458-2.777,15.187-6.732v14.728c-5.002,2.188-10.003,3.787-15.549,3.787
	c-19.277,0-33.554-15.401-33.554-32.905c0-18.01,13.731-33.915,33.826-33.915c5.366,0,10.64,1.346,15.278,3.703V65.523z"/>
<g>
	
		<rect x="163.582" y="7.983" transform="matrix(0.7869 0.617 -0.617 0.7869 53.0069 -95.924)" fill="#716558" width="3.634" height="41.615"/>
	
		<rect x="113.71" y="42.031" transform="matrix(0.6169 0.787 -0.787 0.6169 86.043 -89.0724)" fill="#716558" width="41.613" height="3.634"/>
	<path fill="#27B899" d="M128.265,28.328c0,0-0.188-0.247-0.41-0.656c-0.229-0.41-0.487-0.982-0.701-1.647
		c-0.424-1.329-0.528-3.002-0.19-4.579c0.337-1.577,1.118-3.059,2.055-4.094c0.469-0.517,0.943-0.931,1.322-1.21
		c0.372-0.281,0.647-0.428,0.647-0.428s0.19,0.247,0.413,0.656c0.23,0.411,0.491,0.983,0.705,1.648
		c0.427,1.33,0.526,3.002,0.183,4.578c-0.343,1.576-1.128,3.057-2.063,4.093c-0.469,0.518-0.94,0.931-1.318,1.211
		C128.539,28.181,128.265,28.328,128.265,28.328z"/>
	<path fill="#27B899" d="M112.98,37.673c0,0,0.247-0.188,0.656-0.41c0.41-0.229,0.982-0.487,1.647-0.701
		c1.329-0.424,3.002-0.528,4.579-0.19c1.577,0.337,3.059,1.118,4.094,2.055c0.517,0.47,0.931,0.943,1.21,1.322
		c0.281,0.372,0.428,0.647,0.428,0.647s-0.247,0.19-0.656,0.413c-0.411,0.23-0.983,0.491-1.648,0.705
		c-1.33,0.427-3.002,0.526-4.578,0.183c-1.576-0.343-3.057-1.128-4.093-2.063c-0.518-0.469-0.931-0.94-1.211-1.318
		C113.127,37.946,112.98,37.673,112.98,37.673z"/>
	<path fill="#27B899" d="M190.056,20.113c0,0-0.163,0.264-0.466,0.617c-0.302,0.36-0.743,0.806-1.288,1.243
		c-1.09,0.871-2.615,1.565-4.209,1.813c-1.594,0.248-3.257,0.049-4.558-0.458c-0.651-0.254-1.206-0.549-1.602-0.803
		c-0.395-0.247-0.63-0.452-0.63-0.452s0.163-0.266,0.466-0.62c0.301-0.362,0.743-0.81,1.287-1.247
		c1.09-0.874,2.616-1.564,4.211-1.805c1.595-0.242,3.258-0.038,4.559,0.465c0.651,0.253,1.206,0.546,1.602,0.799
		C189.821,19.91,190.056,20.113,190.056,20.113z"/>
	<path fill="#27B899" d="M164.263,7.073c0,0,0.264,0.163,0.617,0.466c0.36,0.302,0.806,0.743,1.243,1.288
		c0.871,1.09,1.565,2.615,1.813,4.209c0.248,1.594,0.049,3.256-0.458,4.558c-0.254,0.651-0.549,1.206-0.803,1.602
		c-0.247,0.395-0.452,0.63-0.452,0.63s-0.266-0.163-0.62-0.466c-0.362-0.301-0.81-0.743-1.247-1.287
		c-0.874-1.09-1.563-2.616-1.805-4.211c-0.242-1.595-0.038-3.258,0.465-4.559c0.253-0.651,0.546-1.206,0.799-1.602
		C164.061,7.308,164.263,7.073,164.263,7.073z"/>
	<polygon fill="#716558" points="156.835,18.6 151.519,18.6 149.436,23.465 146.444,17.441 143.469,17.441 143.469,112.145 
		156.835,112.145 	"/>
</g>
</svg>
