<?xml version="1.0" encoding="utf-8"?>
<!-- Generator: Adobe Illustrator 17.0.0, SVG Export Plug-In . SVG Version: 6.00 Build 0)  -->
<!DOCTYPE svg PUBLIC "-//W3C//DTD SVG 1.1//EN" "http://www.w3.org/Graphics/SVG/1.1/DTD/svg11.dtd">
<svg version="1.1" id="Layer_1" xmlns="http://www.w3.org/2000/svg" xmlns:xlink="http://www.w3.org/1999/xlink" x="0px" y="0px"
	 width="300px" height="120px" viewBox="0 0 300 120" enable-background="new 0 0 300 120" xml:space="preserve">
<path fill="#27B899" d="M72.93,78.965v1.599c0,17.924-9.911,33.831-31.189,33.831c-20.005,0-32.645-15.654-32.645-33.158
	c0-18.094,13.003-33.662,33.463-33.662c11.639,0,21.823,5.47,27.097,15.148l-11.821,5.89c-2.728-5.722-8.547-10.099-15.64-10.099
	c-12.912,0-19.277,12.204-19.277,22.723s6.456,22.217,19.368,22.217c8.365,0,15.367-6.732,15.64-14.39H43.377V78.965H72.93z"/>
<g>
	<path fill="#27B899" d="M130.926,112.711h-16.185L98.1,87.128h-0.182v25.584H84.551V49.257h18.095
		c13.549,0,22.915,5.555,22.915,19.105c0,8.078-4.819,16.158-14.004,17.589L130.926,112.711z M97.918,78.46h1.728
		c7.366,0,12.548-2.021,12.548-9.763c0-7.827-5.365-9.342-12.457-9.342h-1.819V78.46z"/>
</g>
<g>
	<path fill="#27B899" d="M169.723,47.575h9.639l36.1,44.35h0.182V49.257h13.367v64.716h-9.639l-36.1-44.35h-0.182v43.088h-13.367
		V47.575z"/>
</g>
<path fill="#27B899" d="M289.552,66.089c-3.728-4.209-9.367-6.734-15.096-6.734c-12.821,0-20.186,10.941-20.186,21.881
	c0,10.688,7.638,21.376,20.095,21.376c5.729,0,11.458-2.777,15.187-6.732v14.728c-5.002,2.188-10.003,3.787-15.549,3.787
	c-19.277,0-33.554-15.401-33.554-32.905c0-18.01,13.731-33.915,33.826-33.915c5.366,0,10.639,1.346,15.277,3.703V66.089z"/>
<g>
	<path fill="#27B899" d="M125.487,29.543c0,0-0.188-0.247-0.41-0.656c-0.229-0.41-0.487-0.982-0.701-1.647
		c-0.424-1.329-0.528-3.002-0.19-4.579c0.337-1.577,1.118-3.059,2.055-4.094c0.469-0.517,0.943-0.931,1.322-1.21
		c0.372-0.281,0.647-0.428,0.647-0.428s0.19,0.247,0.413,0.656c0.23,0.411,0.491,0.983,0.705,1.648
		c0.427,1.33,0.526,3.002,0.182,4.578c-0.343,1.576-1.128,3.057-2.063,4.093c-0.469,0.518-0.94,0.931-1.318,1.211
		C125.76,29.396,125.487,29.543,125.487,29.543z"/>
	<path fill="#27B899" d="M110.587,35.827c0,0,0.247-0.188,0.656-0.41c0.41-0.229,0.982-0.487,1.647-0.701
		c1.329-0.424,3.002-0.528,4.579-0.19c1.577,0.337,3.059,1.118,4.094,2.055c0.517,0.47,0.931,0.943,1.21,1.323
		c0.281,0.372,0.428,0.647,0.428,0.647s-0.247,0.19-0.656,0.413c-0.411,0.23-0.983,0.491-1.648,0.705
		c-1.33,0.427-3.002,0.526-4.578,0.182c-1.576-0.343-3.057-1.128-4.093-2.063c-0.518-0.469-0.931-0.94-1.211-1.318
		C110.734,36.1,110.587,35.827,110.587,35.827z"/>
</g>
<polygon fill="#27B899" points="120.487,27.543 146.958,58.668 144.099,62.911 119.201,28.551 "/>
<path fill="#27B899" d="M175.332,20.056c0,0,0.195-0.242,0.539-0.555c0.344-0.32,0.837-0.707,1.432-1.073
	c1.19-0.729,2.789-1.229,4.402-1.277c1.612-0.049,3.237,0.356,4.466,1.019c0.615,0.333,1.129,0.694,1.49,0.996
	c0.361,0.294,0.57,0.526,0.57,0.526s-0.195,0.243-0.539,0.557c-0.344,0.322-0.837,0.711-1.432,1.078
	c-1.19,0.732-2.789,1.227-4.402,1.269c-1.613,0.043-3.238-0.366-4.467-1.027c-0.615-0.332-1.129-0.691-1.49-0.991
	C175.54,20.286,175.332,20.056,175.332,20.056z"/>
<path fill="#27B899" d="M167.618,4.608c0,0,0.242,0.195,0.555,0.539c0.32,0.344,0.707,0.837,1.073,1.432
	c0.729,1.19,1.229,2.789,1.277,4.402c0.049,1.612-0.356,3.237-1.019,4.466c-0.333,0.615-0.694,1.129-0.996,1.49
	c-0.294,0.361-0.526,0.57-0.526,0.57s-0.243-0.195-0.557-0.539c-0.322-0.344-0.711-0.837-1.078-1.432
	c-0.732-1.19-1.227-2.789-1.269-4.402c-0.043-1.612,0.366-3.238,1.027-4.466c0.332-0.615,0.691-1.129,0.991-1.49
	C167.388,4.816,167.618,4.608,167.618,4.608z"/>
<polygon fill="#27B899" points="177.053,13.484 152.169,47.854 149.309,43.612 175.767,12.476 "/>
<polygon fill="#27B899" points="143.645,18.008 153.011,18.008 156.011,112.711 140.645,112.711 "/>
</svg>
