<?xml version="1.0" encoding="utf-8"?>
<!-- Generator: Adobe Illustrator 17.0.0, SVG Export Plug-In . SVG Version: 6.00 Build 0)  -->
<!DOCTYPE svg PUBLIC "-//W3C//DTD SVG 1.1//EN" "http://www.w3.org/Graphics/SVG/1.1/DTD/svg11.dtd">
<svg version="1.1" id="Layer_1" xmlns="http://www.w3.org/2000/svg" xmlns:xlink="http://www.w3.org/1999/xlink" x="0px" y="0px"
	 width="120px" height="122px" viewBox="0 0 120 122" enable-background="new 0 0 120 122" xml:space="preserve">
<path fill="#1BB899" d="M61.493,110.356c7.603,3.896,20.488,15.858,25.71,3.372c5.844-13.968,3.314-28.052,6.211-41.006
	c-2.471-3.2-6.897-4.302-9.052-1.692c-1.685,1.235-0.066,2.74-0.021,4.118c-1.437,10.445-0.695,21.071-4.468,31.324
	C62.771,91.67,47.441,69.26,46.585,48.604c-0.434-10.349,2.197-25.054,8.399-32.905c2.917-3.696,7.465-3.917,8.959-8.773
	c0.766-2.578-4.351-3.948-6.616-4.345c-10.704,7.522-15.725,18.202-17.534,28.354c-4.345,24.507,5.67,50.232,27.303,72.906
	c-8.681-2.349-17.063-8.343-25.567-12.869c-2.271,0.659-4.396-0.492-6.791,1.662C40.26,102.133,51.303,105.137,61.493,110.356z"/>
</svg>
