<?xml version="1.0" encoding="utf-8"?>
<!-- Generator: Adobe Illustrator 17.0.0, SVG Export Plug-In . SVG Version: 6.00 Build 0)  -->
<!DOCTYPE svg PUBLIC "-//W3C//DTD SVG 1.1//EN" "http://www.w3.org/Graphics/SVG/1.1/DTD/svg11.dtd">
<svg version="1.1" id="Layer_1" xmlns="http://www.w3.org/2000/svg" xmlns:xlink="http://www.w3.org/1999/xlink" x="0px" y="0px"
	 width="120px" height="122px" viewBox="0 0 120 122" enable-background="new 0 0 120 122" xml:space="preserve">
<path fill="#1BB899" d="M23.125,81.887c-7.348-4.359-24.335-8.89-16.551-19.961c8.707-12.387,21.974-17.749,31.394-27.102
	c4.024,0.386,7.315,3.545,6.254,6.759c-0.147,2.084-2.284,1.516-3.474,2.211c-8.074,6.78-17.462,11.814-24.129,20.468
	c21.638,6.588,48.77,7.623,66.707-2.657c8.989-5.146,20.032-15.207,23.373-24.637c1.574-4.438-0.662-8.404,2.652-12.256
	c1.774-2.022,5.659,1.579,7.202,3.285c-0.663,13.066-7.027,23.005-14.655,29.944C83.472,74.673,56.366,79.903,25.653,73.674
	c6.613,6.095,16.15,9.996,24.511,14.781c0.652,2.273,2.758,3.458,2.211,6.633C41.395,95.475,32.971,87.729,23.125,81.887z"/>
</svg>
